<svg width="80" height="25" viewBox="0 0 80 25" fill="none" xmlns="http://www.w3.org/2000/svg">
<path d="M8.26855 13.3594H2.50293L2.47168 10.9375H7.70605C8.57064 10.9375 9.32585 10.7917 9.97168 10.5C10.6175 10.2083 11.1175 9.79167 11.4717 9.25C11.8363 8.69792 12.0186 8.04167 12.0186 7.28125C12.0186 6.44792 11.8571 5.77083 11.5342 5.25C11.2217 4.71875 10.7373 4.33333 10.0811 4.09375C9.43522 3.84375 8.6123 3.71875 7.6123 3.71875H3.1748V24H0.15918V1.25H7.6123C8.77897 1.25 9.82064 1.36979 10.7373 1.60938C11.654 1.83854 12.43 2.20312 13.0654 2.70312C13.7113 3.19271 14.2008 3.81771 14.5342 4.57812C14.8675 5.33854 15.0342 6.25 15.0342 7.3125C15.0342 8.25 14.7946 9.09896 14.3154 9.85938C13.8363 10.6094 13.1696 11.224 12.3154 11.7031C11.4717 12.1823 10.4821 12.4896 9.34668 12.625L8.26855 13.3594ZM8.12793 24H1.31543L3.01855 21.5469H8.12793C9.08626 21.5469 9.89876 21.3802 10.5654 21.0469C11.2425 20.7135 11.7581 20.2448 12.1123 19.6406C12.4665 19.026 12.6436 18.3021 12.6436 17.4688C12.6436 16.625 12.4925 15.8958 12.1904 15.2812C11.8883 14.6667 11.4144 14.1927 10.7686 13.8594C10.1227 13.526 9.28939 13.3594 8.26855 13.3594H3.97168L4.00293 10.9375H9.87793L10.5186 11.8125C11.6123 11.9062 12.5394 12.2188 13.2998 12.75C14.0602 13.2708 14.6383 13.9375 15.0342 14.75C15.4404 15.5625 15.6436 16.4583 15.6436 17.4375C15.6436 18.8542 15.3311 20.0521 14.7061 21.0312C14.0915 22 13.2217 22.7396 12.0967 23.25C10.9717 23.75 9.64876 24 8.12793 24ZM27.0654 20.5469L33.7686 1.25H37.0342L28.6123 24H26.2842L27.0654 20.5469ZM20.7998 1.25L27.4404 20.5469L28.2686 24H25.9404L17.5342 1.25H20.7998ZM57.5186 12.1094V21.125C57.1644 21.5521 56.6175 22.0156 55.8779 22.5156C55.1383 23.0052 54.1852 23.4271 53.0186 23.7812C51.8519 24.1354 50.4404 24.3125 48.7842 24.3125C47.3154 24.3125 45.9769 24.0729 44.7686 23.5938C43.5602 23.1042 42.5186 22.3906 41.6436 21.4531C40.779 20.5156 40.1123 19.3698 39.6436 18.0156C39.1748 16.651 38.9404 15.0938 38.9404 13.3438V11.9219C38.9404 10.1719 39.1644 8.61458 39.6123 7.25C40.0706 5.88542 40.7217 4.73438 41.5654 3.79688C42.4092 2.85938 43.4144 2.14583 44.5811 1.65625C45.7477 1.16667 47.0446 0.921875 48.4717 0.921875C50.4508 0.921875 52.0758 1.24479 53.3467 1.89062C54.6175 2.52604 55.5863 3.41146 56.2529 4.54688C56.93 5.67188 57.3467 6.96354 57.5029 8.42188H52.9561C52.8415 7.65104 52.6227 6.97917 52.2998 6.40625C51.9769 5.83333 51.5133 5.38542 50.9092 5.0625C50.3154 4.73958 49.5446 4.57812 48.5967 4.57812C47.8154 4.57812 47.1175 4.73958 46.5029 5.0625C45.8988 5.375 45.3883 5.83854 44.9717 6.45312C44.555 7.06771 44.2373 7.82812 44.0186 8.73438C43.7998 9.64062 43.6904 10.6927 43.6904 11.8906V13.3438C43.6904 14.5312 43.805 15.5833 44.0342 16.5C44.2633 17.4062 44.6019 18.1719 45.0498 18.7969C45.5081 19.4115 46.0706 19.875 46.7373 20.1875C47.404 20.5 48.18 20.6562 49.0654 20.6562C49.805 20.6562 50.4196 20.5938 50.9092 20.4688C51.4092 20.3438 51.8102 20.1927 52.1123 20.0156C52.4248 19.8281 52.6644 19.651 52.8311 19.4844V15.4531H48.5498V12.1094H57.5186ZM79.9873 12.0938V13.1719C79.9873 14.901 79.7529 16.4531 79.2842 17.8281C78.8154 19.2031 78.154 20.375 77.2998 21.3438C76.4456 22.3021 75.4248 23.0365 74.2373 23.5469C73.0602 24.0573 71.7529 24.3125 70.3154 24.3125C68.8883 24.3125 67.5811 24.0573 66.3936 23.5469C65.2165 23.0365 64.1956 22.3021 63.3311 21.3438C62.4665 20.375 61.7946 19.2031 61.3154 17.8281C60.8467 16.4531 60.6123 14.901 60.6123 13.1719V12.0938C60.6123 10.3542 60.8467 8.80208 61.3154 7.4375C61.7842 6.0625 62.4456 4.89062 63.2998 3.92188C64.1644 2.95312 65.1852 2.21354 66.3623 1.70312C67.5498 1.19271 68.8571 0.9375 70.2842 0.9375C71.7217 0.9375 73.029 1.19271 74.2061 1.70312C75.3936 2.21354 76.4144 2.95312 77.2686 3.92188C78.1331 4.89062 78.7998 6.0625 79.2686 7.4375C79.7477 8.80208 79.9873 10.3542 79.9873 12.0938ZM75.2529 13.1719V12.0625C75.2529 10.8542 75.1436 9.79167 74.9248 8.875C74.7061 7.95833 74.3831 7.1875 73.9561 6.5625C73.529 5.9375 73.0081 5.46875 72.3936 5.15625C71.779 4.83333 71.0758 4.67188 70.2842 4.67188C69.4925 4.67188 68.7894 4.83333 68.1748 5.15625C67.5706 5.46875 67.055 5.9375 66.6279 6.5625C66.2113 7.1875 65.8936 7.95833 65.6748 8.875C65.4561 9.79167 65.3467 10.8542 65.3467 12.0625V13.1719C65.3467 14.3698 65.4561 15.4323 65.6748 16.3594C65.8936 17.276 66.2165 18.0521 66.6436 18.6875C67.0706 19.3125 67.5915 19.7865 68.2061 20.1094C68.8206 20.4323 69.5238 20.5938 70.3154 20.5938C71.1071 20.5938 71.8102 20.4323 72.4248 20.1094C73.0394 19.7865 73.555 19.3125 73.9717 18.6875C74.3883 18.0521 74.7061 17.276 74.9248 16.3594C75.1436 15.4323 75.2529 14.3698 75.2529 13.1719Z" fill="white"/>
</svg>
