<svg width="33" height="32" viewBox="0 0 33 32" fill="none" xmlns="http://www.w3.org/2000/svg">
<g clip-path="url(#clip0_338_581)">
<rect x="0.666504" width="32" height="32" rx="6" fill="url(#paint0_linear_338_581)"/>
<path fill-rule="evenodd" clip-rule="evenodd" d="M10.6665 4.6H22.6665C23.4397 4.6 24.0665 5.2268 24.0665 6V26C24.0665 26.7732 23.4397 27.4 22.6665 27.4H9.2665V17H8.6665V27.4V28H9.2665H22.6665C23.7711 28 24.6665 27.1046 24.6665 26V6C24.6665 4.89543 23.7711 4 22.6665 4H10.6665C9.56193 4 8.6665 4.89543 8.6665 6V15H9.2665V6C9.2665 5.2268 9.89331 4.6 10.6665 4.6Z" fill="#176239"/>
<path d="M8.6665 6C8.6665 4.89543 9.56193 4 10.6665 4H22.6665C23.7711 4 24.6665 4.89543 24.6665 6V26C24.6665 27.1046 23.7711 28 22.6665 28H8.6665V6Z" fill="url(#paint1_linear_338_581)"/>
<path d="M8.6665 6C8.6665 4.89543 9.56193 4 10.6665 4H22.6665C23.7711 4 24.6665 4.89543 24.6665 6V26C24.6665 27.1046 23.7711 28 22.6665 28H8.6665V6Z" fill="url(#paint2_linear_338_581)"/>
<path d="M15.5621 6.39325C14.6177 6.6631 13.9665 7.52634 13.9665 8.5086V29.6743C13.9665 30.4715 14.7296 31.0471 15.4962 30.8281L23.561 28.5239C24.3337 28.3031 24.8665 27.5968 24.8665 26.7931V5.59088C24.8665 4.66075 23.9762 3.98922 23.0819 4.24474L15.5621 6.39325Z" fill="url(#paint3_linear_338_581)" stroke="url(#paint4_linear_338_581)" stroke-width="0.4"/>
<circle cx="16.6665" cy="18" r="1" fill="url(#paint5_linear_338_581)"/>
<g filter="url(#filter0_d_338_581)">
<path d="M10.7168 13.2936C10.5363 13.128 10.2586 13.1295 10.0799 13.2971C9.8811 13.4835 9.88287 13.7996 10.0838 13.9838L11.6066 15.3798C11.6738 15.4414 11.6302 15.5535 11.539 15.5535H6.11251C5.86592 15.5535 5.66602 15.7534 5.66602 16C5.66602 16.2466 5.86592 16.4465 6.11251 16.4465H11.5391C11.6303 16.4465 11.6739 16.5586 11.6067 16.6202L10.0839 18.0168C9.88317 18.2009 9.88143 18.5168 10.0801 18.7031C10.2587 18.8706 10.5362 18.872 10.7166 18.7065L13.2646 16.3684C13.4805 16.1703 13.4805 15.8297 13.2646 15.6316L10.7168 13.2936Z" fill="url(#paint6_linear_338_581)"/>
</g>
</g>
<defs>
<filter id="filter0_d_338_581" x="3.66602" y="11.1704" width="11.7603" height="9.65929" filterUnits="userSpaceOnUse" color-interpolation-filters="sRGB">
<feFlood flood-opacity="0" result="BackgroundImageFix"/>
<feColorMatrix in="SourceAlpha" type="matrix" values="0 0 0 0 0 0 0 0 0 0 0 0 0 0 0 0 0 0 127 0" result="hardAlpha"/>
<feOffset/>
<feGaussianBlur stdDeviation="1"/>
<feComposite in2="hardAlpha" operator="out"/>
<feColorMatrix type="matrix" values="0 0 0 0 0.0901961 0 0 0 0 0.376471 0 0 0 0 0.219608 0 0 0 0.16 0"/>
<feBlend mode="normal" in2="BackgroundImageFix" result="effect1_dropShadow_338_581"/>
<feBlend mode="normal" in="SourceGraphic" in2="effect1_dropShadow_338_581" result="shape"/>
</filter>
<linearGradient id="paint0_linear_338_581" x1="32.6665" y1="0" x2="0.666508" y2="32" gradientUnits="userSpaceOnUse">
<stop stop-color="#B4FFC0"/>
<stop offset="0.798889" stop-color="white" stop-opacity="0"/>
</linearGradient>
<linearGradient id="paint1_linear_338_581" x1="8.6665" y1="4" x2="24.6665" y2="28" gradientUnits="userSpaceOnUse">
<stop offset="0.343889" stop-color="#2FC874" stop-opacity="0"/>
<stop offset="0.783889" stop-color="#D2FF53" stop-opacity="0.21"/>
</linearGradient>
<linearGradient id="paint2_linear_338_581" x1="24.6665" y1="4" x2="8.6665" y2="28" gradientUnits="userSpaceOnUse">
<stop stop-color="#D2FF53" stop-opacity="0.49"/>
<stop offset="0.443889" stop-color="#2FC874" stop-opacity="0"/>
</linearGradient>
<linearGradient id="paint3_linear_338_581" x1="19.4165" y1="4" x2="19.4165" y2="31" gradientUnits="userSpaceOnUse">
<stop stop-color="#7CE6A7"/>
<stop offset="1" stop-color="#4FCE82"/>
</linearGradient>
<linearGradient id="paint4_linear_338_581" x1="24.6665" y1="4" x2="-1.3335" y2="8.5" gradientUnits="userSpaceOnUse">
<stop stop-color="#9BD9B7" stop-opacity="0"/>
<stop offset="1" stop-color="#9BD9B7"/>
</linearGradient>
<linearGradient id="paint5_linear_338_581" x1="16.6665" y1="17" x2="16.6665" y2="19" gradientUnits="userSpaceOnUse">
<stop stop-color="#2FC874"/>
<stop offset="1" stop-color="#176239"/>
</linearGradient>
<linearGradient id="paint6_linear_338_581" x1="12.9378" y1="16" x2="2.03012" y2="16" gradientUnits="userSpaceOnUse">
<stop stop-color="#5CDF91"/>
<stop offset="1" stop-color="#3FAE6C"/>
</linearGradient>
<clipPath id="clip0_338_581">
<rect width="32" height="32" fill="white" transform="translate(0.666504)"/>
</clipPath>
</defs>
</svg>
