<svg width="32" height="32" viewBox="0 0 32 32" fill="none" xmlns="http://www.w3.org/2000/svg">
<g clip-path="url(#clip0_338_611)">
<rect width="32" height="32" rx="6" fill="url(#paint0_linear_338_611)"/>
<path fill-rule="evenodd" clip-rule="evenodd" d="M21 4.6H9C8.2268 4.6 7.6 5.2268 7.6 6V26C7.6 26.7732 8.2268 27.4 9 27.4H22.4V17H23V27.4V28H22.4H9C7.89543 28 7 27.1046 7 26V6C7 4.89543 7.89543 4 9 4H21C22.1046 4 23 4.89543 23 6V15H22.4V6C22.4 5.2268 21.7732 4.6 21 4.6Z" fill="#621717"/>
<path d="M23 6C23 4.89543 22.1046 4 21 4H9C7.89543 4 7 4.89543 7 6V26C7 27.1046 7.89543 28 9 28H23V6Z" fill="url(#paint1_linear_338_611)"/>
<path d="M23 6C23 4.89543 22.1046 4 21 4H9C7.89543 4 7 4.89543 7 6V26C7 27.1046 7.89543 28 9 28H23V6Z" fill="url(#paint2_linear_338_611)"/>
<path d="M16.1044 6.39325C17.0488 6.6631 17.7 7.52634 17.7 8.5086V29.6743C17.7 30.4715 16.9369 31.0471 16.1703 30.8281L8.1055 28.5239C7.33276 28.3031 6.8 27.5968 6.8 26.7931V5.59088C6.8 4.66075 7.69027 3.98922 8.58461 4.24474L16.1044 6.39325Z" fill="url(#paint3_linear_338_611)" stroke="url(#paint4_linear_338_611)" stroke-width="0.4"/>
<circle cx="1" cy="1" r="1" transform="matrix(-1 0 0 1 16 17)" fill="url(#paint5_linear_338_611)"/>
<g filter="url(#filter0_d_338_611)">
<path d="M24.7203 13.2635C24.5378 13.1113 24.2721 13.1127 24.0912 13.2668C23.8609 13.4631 23.8628 13.8196 24.0953 14.0133L25.7317 15.3767C25.8036 15.4365 25.7613 15.5535 25.6677 15.5535H20.448C20.2014 15.5535 20.0015 15.7534 20.0015 16C20.0015 16.2466 20.2014 16.4465 20.448 16.4465H25.6678C25.7614 16.4465 25.8037 16.5634 25.7319 16.6233L24.0954 17.9874C23.8631 18.181 23.8612 18.5372 24.0914 18.7333C24.2722 18.8874 24.5377 18.8888 24.7201 18.7366L27.5411 16.384C27.7807 16.1841 27.7807 15.8159 27.5411 15.616L24.7203 13.2635Z" fill="url(#paint6_linear_338_611)"/>
</g>
</g>
<defs>
<filter id="filter0_d_338_611" x="18.0015" y="11.1503" width="11.7192" height="9.69954" filterUnits="userSpaceOnUse" color-interpolation-filters="sRGB">
<feFlood flood-opacity="0" result="BackgroundImageFix"/>
<feColorMatrix in="SourceAlpha" type="matrix" values="0 0 0 0 0 0 0 0 0 0 0 0 0 0 0 0 0 0 127 0" result="hardAlpha"/>
<feOffset/>
<feGaussianBlur stdDeviation="1"/>
<feComposite in2="hardAlpha" operator="out"/>
<feColorMatrix type="matrix" values="0 0 0 0 0.0901961 0 0 0 0 0.376471 0 0 0 0 0.219608 0 0 0 0.16 0"/>
<feBlend mode="normal" in2="BackgroundImageFix" result="effect1_dropShadow_338_611"/>
<feBlend mode="normal" in="SourceGraphic" in2="effect1_dropShadow_338_611" result="shape"/>
</filter>
<linearGradient id="paint0_linear_338_611" x1="32" y1="0" x2="3.8147e-06" y2="32" gradientUnits="userSpaceOnUse">
<stop stop-color="#FFB4B4"/>
<stop offset="0.798889" stop-color="white" stop-opacity="0"/>
</linearGradient>
<linearGradient id="paint1_linear_338_611" x1="23" y1="4" x2="7" y2="28" gradientUnits="userSpaceOnUse">
<stop offset="0.343889" stop-color="#C82F2F" stop-opacity="0"/>
<stop offset="0.783889" stop-color="#FF5353" stop-opacity="0.21"/>
</linearGradient>
<linearGradient id="paint2_linear_338_611" x1="7" y1="4" x2="23" y2="28" gradientUnits="userSpaceOnUse">
<stop stop-color="#FF5353" stop-opacity="0.49"/>
<stop offset="0.443889" stop-color="#C82F2F" stop-opacity="0"/>
</linearGradient>
<linearGradient id="paint3_linear_338_611" x1="12.25" y1="4" x2="12.25" y2="31" gradientUnits="userSpaceOnUse">
<stop stop-color="#E69C7C"/>
<stop offset="1" stop-color="#CE5E4F"/>
</linearGradient>
<linearGradient id="paint4_linear_338_611" x1="7" y1="4" x2="33" y2="8.5" gradientUnits="userSpaceOnUse">
<stop stop-color="#D99B9B" stop-opacity="0"/>
<stop offset="1" stop-color="#D99B9B"/>
</linearGradient>
<linearGradient id="paint5_linear_338_611" x1="1" y1="0" x2="1" y2="2" gradientUnits="userSpaceOnUse">
<stop stop-color="#C82F2F"/>
<stop offset="1" stop-color="#621717"/>
</linearGradient>
<linearGradient id="paint6_linear_338_611" x1="27.2024" y1="16" x2="15.2008" y2="16" gradientUnits="userSpaceOnUse">
<stop stop-color="#DF8B5C"/>
<stop offset="1" stop-color="#AE603F"/>
</linearGradient>
<clipPath id="clip0_338_611">
<rect width="32" height="32" fill="white"/>
</clipPath>
</defs>
</svg>
