<svg width="32" height="32" viewBox="0 0 32 32" fill="none" xmlns="http://www.w3.org/2000/svg">
<path d="M19.1999 17.6C19.1999 16.7163 19.9162 16 20.7999 16H25.5999C26.4836 16 27.1999 16.7163 27.1999 17.6C27.1999 18.4836 26.4836 19.2 25.5999 19.2H20.7999C19.9162 19.2 19.1999 18.4836 19.1999 17.6ZM14.3999 24C14.3999 23.1163 15.1162 22.4 15.9999 22.4H18.3999H20.7999C21.6836 22.4 22.3999 23.1163 22.3999 24C22.3999 24.8836 21.6836 25.6 20.7999 25.6H15.9999C15.1162 25.6 14.3999 24.8836 14.3999 24ZM23.9999 11.2C23.9999 10.3163 24.7162 9.59998 25.5999 9.59998H30.3999C31.2836 9.59998 31.9999 10.3163 31.9999 11.2C31.9999 12.0836 31.2836 12.8 30.3999 12.8H25.5999C24.7162 12.8 23.9999 12.0836 23.9999 11.2Z" fill="#C2C2C2"/>
<path d="M1.60084 21.4726C0.973449 20.8452 0.973448 19.828 1.60084 19.2006C2.22824 18.5732 3.24545 18.5732 3.87284 19.2006L6.28884 21.6166L18.5606 6.62434C19.1175 5.94402 20.1204 5.84383 20.8008 6.40056C21.4813 6.9573 21.5817 7.96022 21.0251 8.64078L7.91223 24.6736C7.16303 25.5896 5.78665 25.6584 4.94987 24.8216L1.60084 21.4726Z" fill="#A8A8A8"/>
</svg>
