<svg width="32" height="32" viewBox="0 0 32 32" fill="none" xmlns="http://www.w3.org/2000/svg">
<path d="M16 18.916C19.2846 18.916 22.2448 19.5816 24.3744 20.6465C26.519 21.7188 27.75 23.1542 27.75 24.666V25.666C27.75 26.6325 26.9665 27.416 26 27.416H6C5.0335 27.416 4.25 26.6325 4.25 25.666V24.666C4.25 23.1542 5.48097 21.7188 7.62555 20.6465C9.75525 19.5816 12.7154 18.916 16 18.916Z" fill="#C2C2C2" stroke="url(#paint0_linear_1377_3807)" stroke-width="0.5"/>
<path d="M16 3.25C17.525 3.25 18.9875 3.8558 20.0659 4.93414C21.1442 6.01247 21.75 7.475 21.75 9C21.75 10.525 21.1442 11.9875 20.0659 13.0659C18.9875 14.1442 17.525 14.75 16 14.75C14.475 14.75 13.0125 14.1442 11.9341 13.0659C10.8558 11.9875 10.25 10.525 10.25 9C10.25 7.47501 10.8558 6.01247 11.9341 4.93414C13.0125 3.8558 14.475 3.25 16 3.25Z" fill="#C2C2C2" stroke="#A8A8A8" stroke-width="0.5"/>
<defs>
<linearGradient id="paint0_linear_1377_3807" x1="16" y1="18.666" x2="16" y2="27.666" gradientUnits="userSpaceOnUse">
<stop stop-color="#D4D4D4"/>
<stop offset="1" stop-color="#D4D4D4" stop-opacity="0"/>
</linearGradient>
</defs>
</svg>
