<svg width="32" height="32" viewBox="0 0 32 32" fill="none" xmlns="http://www.w3.org/2000/svg">
<path d="M7.99984 7.99997C7.64815 7.99496 7.31268 7.85119 7.0665 7.59997L5.73317 6.26664C5.5406 6.00988 5.44711 5.69227 5.46986 5.37212C5.49261 5.05197 5.63008 4.75078 5.85703 4.52383C6.08398 4.29688 6.38517 4.15941 6.70532 4.13666C7.02546 4.11391 7.34307 4.2074 7.59984 4.39997L8.93317 5.73331C9.11589 5.91967 9.2399 6.15556 9.28982 6.41173C9.33975 6.66791 9.31339 6.9331 9.21401 7.17444C9.11464 7.41577 8.94662 7.62264 8.73079 7.76938C8.51496 7.91613 8.26081 7.99631 7.99984 7.99997ZM5.33317 13.3333H3.99984C3.64622 13.3333 3.30708 13.1928 3.05703 12.9428C2.80698 12.6927 2.6665 12.3536 2.6665 12C2.6665 11.6464 2.80698 11.3072 3.05703 11.0572C3.30708 10.8071 3.64622 10.6666 3.99984 10.6666H5.33317C5.68679 10.6666 6.02593 10.8071 6.27598 11.0572C6.52603 11.3072 6.6665 11.6464 6.6665 12C6.6665 12.3536 6.52603 12.6927 6.27598 12.9428C6.02593 13.1928 5.68679 13.3333 5.33317 13.3333ZM23.9998 7.99997C23.7389 7.99631 23.4847 7.91613 23.2689 7.76938C23.0531 7.62264 22.885 7.41577 22.7857 7.17444C22.6863 6.9331 22.6599 6.66791 22.7099 6.41173C22.7598 6.15556 22.8838 5.91967 23.0665 5.73331L24.3998 4.39997C24.5145 4.24715 24.6606 4.12074 24.8283 4.0293C24.996 3.93786 25.1814 3.88353 25.372 3.86999C25.5625 3.85645 25.7538 3.88401 25.9327 3.95081C26.1117 4.01761 26.2742 4.12208 26.4093 4.25716C26.5444 4.39224 26.6489 4.55477 26.7157 4.73374C26.7825 4.91271 26.81 5.10394 26.7965 5.29449C26.7829 5.48504 26.7286 5.67045 26.6372 5.83818C26.5457 6.0059 26.4193 6.15202 26.2665 6.26664L24.9332 7.59997C24.687 7.85119 24.3515 7.99496 23.9998 7.99997ZM27.9998 13.3333H26.6665C26.3129 13.3333 25.9737 13.1928 25.7237 12.9428C25.4736 12.6927 25.3332 12.3536 25.3332 12C25.3332 11.6464 25.4736 11.3072 25.7237 11.0572C25.9737 10.8071 26.3129 10.6666 26.6665 10.6666H27.9998C28.3535 10.6666 28.6926 10.8071 28.9426 11.0572C29.1927 11.3072 29.3332 11.6464 29.3332 12C29.3332 12.3536 29.1927 12.6927 28.9426 12.9428C28.6926 13.1928 28.3535 13.3333 27.9998 13.3333Z" fill="#A8A8A8"/>
<path d="M12.5028 25C12.1412 25 11.9033 25.3717 12.1019 25.6738C12.454 26.2092 12.9142 26.6687 13.4558 27.0212C14.2132 27.514 15.0974 27.7763 16.001 27.7763C16.9047 27.7763 17.7889 27.514 18.5463 27.0212C19.0879 26.6687 19.5481 26.2092 19.9001 25.6738C20.0988 25.3717 19.8609 25 19.4993 25H12.5028Z" fill="#A8A8A8"/>
<path d="M22.9346 16.811L22.8013 14.3993C22.7891 12.8008 22.2452 11.2517 21.2554 9.9964C20.2656 8.74106 18.8862 7.85082 17.3346 7.46602V3.99935C17.3346 3.64573 17.1941 3.30659 16.9441 3.05654C16.694 2.80649 16.3549 2.66602 16.0013 2.66602C15.6476 2.66602 15.3085 2.80649 15.0585 3.05654C14.8084 3.30659 14.6679 3.64573 14.6679 3.99935V7.46602C13.073 7.89173 11.6728 8.58592 10.7018 9.92097C9.73089 11.256 9.24819 12.8842 9.3346 14.5327V16.9327C9.3346 20.1327 6.80127 20.9327 6.80127 22.5327C6.80127 23.3327 6.80127 24.1327 7.46794 24.1327H24.8013C25.4679 24.1327 25.4679 23.3327 25.4679 22.5327C25.4679 20.9327 22.9346 20.1327 22.9346 16.9327V16.811Z" fill="#C2C2C2"/>
</svg>
