<svg width="32" height="32" viewBox="0 0 32 32" fill="none" xmlns="http://www.w3.org/2000/svg">
<path d="M20.9998 29.42C20.4475 29.42 19.9998 28.9723 19.9998 28.42V22.7533C19.9998 21.6925 19.5784 20.6751 18.8283 19.9249C18.0781 19.1748 17.0607 18.7533 15.9998 18.7533C14.939 18.7533 13.9216 19.1748 13.1714 19.9249C12.4213 20.6751 11.9998 21.6925 11.9998 22.7533V28.42C11.9998 28.9723 11.5521 29.42 10.9998 29.42H5.33317C4.62593 29.42 3.94765 29.1391 3.44755 28.639C2.94746 28.1389 2.6665 27.4606 2.6665 26.7533V12.2627C2.6665 11.8022 2.78574 11.3495 3.01263 10.9488C3.23951 10.5481 3.5663 10.2129 3.96117 9.97601L14.6278 3.57601C15.0423 3.32734 15.5165 3.19598 15.9998 3.19598C16.4832 3.19598 16.9574 3.32734 17.3718 3.57601L28.0385 9.97601C28.4334 10.2129 28.7602 10.5481 28.987 10.9488C29.2139 11.3495 29.3332 11.8022 29.3332 12.2627V26.7533C29.3332 27.4606 29.0522 28.1389 28.5521 28.639C28.052 29.1391 27.3737 29.42 26.6665 29.42H20.9998Z" fill="#C2C2C2"/>
<path d="M13 23C13 21.3431 14.3431 20 16 20C17.6569 20 19 21.3431 19 23V28.3077C19 28.69 18.69 29 18.3077 29H13.6923C13.31 29 13 28.69 13 28.3077V23Z" fill="#A8A8A8"/>
</svg>
