<svg width="32" height="32" viewBox="0 0 32 32" fill="none" xmlns="http://www.w3.org/2000/svg">
<path d="M14.6801 8.83331C14.6843 9.59887 14.5299 10.357 14.2267 11.06C13.7939 12.1205 13.056 13.0288 12.1066 13.6696C11.1572 14.3105 10.0389 14.6552 8.89341 14.66C7.74103 14.66 6.61453 14.3182 5.65637 13.678C4.69821 13.0377 3.95141 12.1277 3.51042 11.0631C3.06942 9.9984 2.95404 8.82687 3.17885 7.69663C3.40366 6.56639 3.95857 5.52819 4.77341 4.71332C5.31471 4.17028 5.95786 3.73942 6.666 3.44544C7.37414 3.15145 8.13334 3.00012 8.90008 3.00012C9.66682 3.00012 10.426 3.15145 11.1342 3.44544C11.8423 3.73942 12.4854 4.17028 13.0267 4.71332C14.1073 5.81405 14.7191 7.29087 14.7334 8.83331H14.6801ZM29.0134 23.1666C29.0108 24.3179 28.6671 25.4426 28.0259 26.3987C27.3846 27.3549 26.4745 28.0996 25.4104 28.539C24.3462 28.9783 23.1758 29.0926 22.0468 28.8674C20.9177 28.6421 19.8808 28.0874 19.0667 27.2734C18.2526 26.4593 17.698 25.4223 17.4727 24.2933C17.2475 23.1643 17.3617 21.9938 17.8011 20.9297C18.2404 19.8656 18.9852 18.9554 19.9413 18.3142C20.8975 17.6729 22.0221 17.3293 23.1734 17.3266C24.7238 17.334 26.2089 17.9519 27.3067 19.0466C27.849 19.5868 28.279 20.229 28.5719 20.9361C28.8648 21.6432 29.0149 22.4013 29.0134 23.1666Z" fill="url(#paint0_linear_1377_3785)"/>
<path d="M29.0148 8.83414C29.0169 9.59817 28.8674 10.355 28.5748 11.0608C28.2546 11.7709 27.8021 12.4134 27.2415 12.9541C26.1465 14.0476 24.6623 14.6618 23.1148 14.6618C21.5673 14.6618 20.0831 14.0476 18.9881 12.9541C17.8955 11.8614 17.2816 10.3794 17.2816 8.83414C17.2816 7.28885 17.8955 5.80685 18.9881 4.71414C19.5272 4.16949 20.1688 3.73706 20.876 3.44183C21.5832 3.14661 22.3418 2.99445 23.1081 2.99414C24.6591 2.99857 26.1452 3.61698 27.2415 4.71414C27.7959 5.24867 28.2383 5.8883 28.5427 6.59569C28.8472 7.30308 29.0077 8.06404 29.0148 8.83414ZM14.6815 23.1675C14.6791 23.9394 14.5156 24.7023 14.2015 25.4075C13.916 26.1169 13.4897 26.761 12.9481 27.3008C12.4064 27.8447 11.7621 28.2755 11.0526 28.5685C10.343 28.8615 9.58242 29.0107 8.8148 29.0075C7.66242 29.0074 6.53592 28.6657 5.57776 28.0255C4.61959 27.3852 3.8728 26.4752 3.4318 25.4106C2.99081 24.3459 2.87542 23.1744 3.10023 22.0441C3.32504 20.9139 3.87996 19.8757 4.6948 19.0608C5.23619 18.5179 5.87937 18.0872 6.5875 17.7933C7.29562 17.4994 8.05478 17.3482 8.82147 17.3482C9.58815 17.3482 10.3473 17.4994 11.0554 17.7933C11.7636 18.0872 12.4067 18.5179 12.9481 19.0608C14.0287 20.1615 14.6405 21.6384 14.6548 23.1808L14.6815 23.1675Z" fill="url(#paint1_linear_1377_3785)"/>
<defs>
<linearGradient id="paint0_linear_1377_3785" x1="16.0402" y1="3.00012" x2="16.0402" y2="28.98" gradientUnits="userSpaceOnUse">
<stop stop-color="#8EF59C"/>
<stop offset="1" stop-color="#46C057"/>
</linearGradient>
<linearGradient id="paint1_linear_1377_3785" x1="16.0016" y1="2.99414" x2="16.0016" y2="29.0075" gradientUnits="userSpaceOnUse">
<stop stop-color="#80CCFF"/>
<stop offset="1" stop-color="#4DADED"/>
</linearGradient>
</defs>
</svg>
