<svg width="33" height="32" viewBox="0 0 33 32" fill="none" xmlns="http://www.w3.org/2000/svg">
<g clip-path="url(#clip0_338_599)">
<rect x="0.333008" width="32" height="32" rx="6" fill="url(#paint0_linear_338_599)"/>
<path d="M19.8024 27V22.9156C19.8024 22.0402 19.4547 21.2007 18.8357 20.5817C18.2167 19.9627 17.3772 19.615 16.5018 19.615C15.6264 19.615 14.7869 19.9627 14.1679 20.5817C13.5489 21.2007 13.2012 22.0402 13.2012 22.9156V27C13.2012 27.4142 12.8654 27.75 12.4512 27.75H8.36677H6.58301V25.9662V14.9148C6.583 14.6068 6.66277 14.304 6.81453 14.0359C6.9663 13.7679 7.18489 13.5437 7.44902 13.3852L15.5841 8.5042C15.8613 8.33787 16.1785 8.25 16.5018 8.25C16.8251 8.25 17.1423 8.33787 17.4195 8.5042L25.5546 13.3852C25.8187 13.5437 26.0373 13.7679 26.1891 14.0359C26.3408 14.304 26.4206 14.6068 26.4206 14.9148V25.9662V27.75H24.6368H20.5524C20.1382 27.75 19.8024 27.4142 19.8024 27Z" fill="url(#paint1_linear_338_599)" stroke="url(#paint2_linear_338_599)" stroke-width="0.5"/>
<path d="M25.833 12L21.833 9.5V7C21.833 6.44772 22.2807 6 22.833 6H24.833C25.3853 6 25.833 6.44772 25.833 7V12Z" fill="url(#paint3_linear_338_599)"/>
<path d="M4.83301 13.5L14.2702 7.65794C14.9649 7.22785 15.7659 7 16.583 7V7C17.4001 7 18.2011 7.22785 18.8958 7.65794L28.333 13.5" stroke="#AA6703" stroke-linecap="round"/>
</g>
<defs>
<linearGradient id="paint0_linear_338_599" x1="32.333" y1="0" x2="0.333012" y2="32" gradientUnits="userSpaceOnUse">
<stop stop-color="#FFEAB4"/>
<stop offset="0.798889" stop-color="white" stop-opacity="0"/>
</linearGradient>
<linearGradient id="paint1_linear_338_599" x1="16.5018" y1="8" x2="16.5018" y2="28" gradientUnits="userSpaceOnUse">
<stop stop-color="#FFE2AA"/>
<stop offset="1" stop-color="#FFA800"/>
</linearGradient>
<linearGradient id="paint2_linear_338_599" x1="16.5018" y1="8" x2="16.5018" y2="28" gradientUnits="userSpaceOnUse">
<stop stop-color="white" stop-opacity="0"/>
<stop offset="1" stop-color="#AA6703" stop-opacity="0.47"/>
</linearGradient>
<linearGradient id="paint3_linear_338_599" x1="23.833" y1="6" x2="23.833" y2="12" gradientUnits="userSpaceOnUse">
<stop stop-color="#FFB546"/>
<stop offset="1" stop-color="#744500"/>
</linearGradient>
<clipPath id="clip0_338_599">
<rect width="32" height="32" fill="white" transform="translate(0.333008)"/>
</clipPath>
</defs>
</svg>
